# xmcd
#
# Track frame offsets:
#	150
#	14610
#	32633
#	47701
#	60609
#	77191
#	90496
#	102380
#	116461
#	126536
#	135544
#
# Disc length: 1993 seconds
#
# Revision: 2
# Processed by: cddbd v1.5.2PL0 Copyright (c) Steve Scherf et al.
# Submitted via: audiograbber 1.83.01
#
DISCID=9207c70b
DTITLE=Boxmasters, The - The Boxmasters CD2
DYEAR=2008
DGENRE=Country
TTITLE0=She's lookin' better by the minute
TTITLE1=Some of Shelley's blues
TTITLE2=Memories of you and I
TTITLE3=Yesterday's gone
TTITLE4=Knoxville girl
TTITLE5=I wanna hold your hand
TTITLE6=Sawmill
TTITLE7=Original mixed up kid
TTITLE8=House at Pooh Corner
TTITLE9=Propinquity (I've just begun to care)
TTITLE10=The kids are alright
EXTD=
EXTT0=
EXTT1=
EXTT2=
EXTT3=
EXTT4=
EXTT5=
EXTT6=
EXTT7=
EXTT8=
EXTT9=
EXTT10=
PLAYORDER=
